<svg xmlns="http://www.w3.org/2000/svg" viewBox="0 0 48 48"><defs><style>.cls-1{fill:#201602;}</style></defs><title>Asset 4ldpi</title><g id="Layer_2" data-name="Layer 2"><g id="layer_1-2" data-name="layer 1"><path class="cls-1" d="M24,48A24,24,0,1,1,48,24,24,24,0,0,1,24,48ZM24,2A22,22,0,1,0,46,24,22,22,0,0,0,24,2Z"/><rect class="cls-1" x="29.6" y="10.5" width="12.35" height="2" transform="translate(2.88 29.67) rotate(-46.74)"/><rect class="cls-1" x="23" y="1" width="2" height="12"/><rect class="cls-1" x="9.94" y="37.82" width="11.82" height="2" transform="translate(-25.8 34.01) rotate(-61.21)"/><rect class="cls-1" x="39.18" y="23.09" width="2" height="11.89" transform="translate(0.52 58.78) rotate(-72.72)"/><path class="cls-1" d="M24,36A12,12,0,1,1,36,24,12,12,0,0,1,24,36Zm0-22A10,10,0,1,0,34,24,10,10,0,0,0,24,14Z"/><path class="cls-1" d="M24,26c-2.21,0-4-2.24-4-5a3.71,3.71,0,0,1,4-4,3.71,3.71,0,0,1,4,4C28,23.76,26.21,26,24,26Zm0-7c-1.79,0-2,1.14-2,2,0,1.6.93,3,2,3s2-1.4,2-3C26,20.14,25.79,19,24,19Z"/><path class="cls-1" d="M31,33H29V27.69a1,1,0,0,0-.83-1L24,26l-4.17.7a1,1,0,0,0-.83,1V33H17V27.69a3,3,0,0,1,2.51-3L23.84,24a1.71,1.71,0,0,1,.32,0l4.33.73a3,3,0,0,1,2.51,3Z"/><rect class="cls-1" x="23" y="28" width="2" height="2"/><rect class="cls-1" x="23" y="31" width="2" height="2"/></g></g></svg>